<?xml version="1.0"?>
<svg
   width="1600"
   height="1288"
   xmlns:xlink="http://www.w3.org/1999/xlink"
   xmlns="http://www.w3.org/2000/svg">
  <defs
     id="defs3043">
    <linearGradient
       id="linearGradient3121">
      <stop
         id="stop3123"
         style="stop-color:#354b85;stop-opacity:0"
         offset="0" />
      <stop
         id="stop3125"
         style="stop-color:#354b85;stop-opacity:1"
         offset="1" />
    </linearGradient>
    <linearGradient
       x1="820.23529"
       y1="612.70587"
       x2="23.058823"
       y2="32.941177"
       id="linearGradient3127"
       xlink:href="#linearGradient3121"
       gradientUnits="userSpaceOnUse" />
    <radialGradient
       cx="-254.11768"
       cy="894.35297"
       r="800"
       fx="-254.11768"
       fy="894.35297"
       id="radialGradient3937"
       xlink:href="#linearGradient3121"
       gradientUnits="userSpaceOnUse"
       gradientTransform="matrix(1.2929411,1.4341002e-8,-1.4341003e-8,1.2929412,1128.5592,-512.34578)" />
    <filter
       color-interpolation-filters="sRGB"
       id="filter3799"
       x="-0.030244112"
       y="-0.044461703"
       width="1.0604882"
       height="1.0889234">
      <feGaussianBlur
         id="feGaussianBlur3801"
         stdDeviation="22.536193" />
    </filter>
    <filter
       color-interpolation-filters="sRGB"
       id="filter4015"
       x="-0.036811038"
       y="-0.034765434"
       width="1.0736221"
       height="1.0695309">
      <feGaussianBlur
         id="feGaussianBlur4017"
         stdDeviation="9.5526563" />
    </filter>
  </defs>
  <rect
     width="1600"
     height="1288"
     x="0"
     y="0"
     id="rect4001"
     style="fill:#d3dced;fill-opacity:1;stroke:none" />
  <rect
     width="2098.9338"
     height="671.39807"
     x="-293.32925"
     y="-295.978"
     id="rect3803"
     style="fill:#000080;fill-opacity:0.50196078;stroke:none" />
  <path
     d="M -55.8125,359.25 C -62.927083,643.69792 -70.041667,928.14583 -77.15625,1212.5938 503.83333,961.80208 1084.8229,711.01042 1665.8125,460.21875 c -9,-134.98958 -18,-269.97917 -27,-404.96875 -564.875,101.33333 -1129.75,202.66667 -1694.625,304 z"
     id="path3955"
     style="fill:#ffffff;fill-opacity:1;stroke:#000000;stroke-width:1px;stroke-linecap:butt;stroke-linejoin:miter;stroke-opacity:1" />
  <path
     d="M 1666.4375,30.8125 C 1087.4602,127.43251 508.84768,233.62062 -70.129631,342.37037 L -92.829856,1247.2946 C 502.64581,993.05158 1098.5203,736.81461 1695.5138,474.98206 z m -57.5625,94.125 20.8125,256.625 L 10.34375,974.34375 -15.125,487.03125 C 526.20816,361.8345 1067.5418,238.092 1608.875,124.9375 z"
     id="path3793"
     style="fill:#000000;fill-opacity:1;stroke:none;filter:url(#filter3799)" />
  <path
     d="M 1659.4375,29.8125 C 1080.4602,126.43251 501.84768,232.62062 -77.129631,341.37037 L -99.829856,1246.2946 C 495.64581,992.05158 1091.5203,735.81461 1688.5138,473.98206 z m -57.5625,94.125 20.8125,256.625 L 3.34375,973.34375 -22.125,486.03125 C 519.20816,360.8345 1060.5418,237.092 1601.875,123.9375 z"
     id="path2998"
     style="fill:#cdd9e9;fill-opacity:1;stroke:#000000;stroke-width:1px;stroke-linecap:butt;stroke-linejoin:miter;stroke-opacity:1" />
  <path
     d="m 833.8125,627.0625 227.1269,659.4589 23.4004,-15.9022 63.0352,-262.6817 247.4473,233.9121 61.8027,-119.6621 -235.125,-219.25 163.5312,-98.46875 3,-18.9375 z"
     id="path4009"
     style="font-size:medium;font-style:normal;font-variant:normal;font-weight:normal;font-stretch:normal;text-indent:0;text-align:start;text-decoration:none;line-height:normal;letter-spacing:normal;word-spacing:normal;text-transform:none;direction:ltr;block-progression:tb;writing-mode:lr-tb;text-anchor:start;baseline-shift:baseline;color:#000000;fill:#000000;fill-opacity:1;fill-rule:nonzero;stroke:none;stroke-width:18;marker:none;visibility:visible;display:inline;overflow:visible;filter:url(#filter4015);enable-background:accumulate;font-family:Sans;-inkscape-font-specification:Sans" />
  <path
     d="m 1073.0449,1259.9531 66.4204,-257.3646 6.1041,-8.64754 246.2874,229.37584 53.5475,-99.2856 -236.1408,-220.15737 5.2281,-7.20627 162.2978,-97.75128 1.0994,-6.91165 L 848.07148,640.49478 1067.259,1263.8954 z"
     id="path3003"
     style="fill:#ffffff;fill-opacity:1;stroke:none" />
  <rect
     width="1600"
     height="1288"
     x="0"
     y="0"
     id="rect3131"
     style="fill:url(#radialGradient3937);fill-opacity:1" />
  <path
     d="m 1073.0449,1259.9531 66.4204,-257.3646 6.1041,-8.64754 246.2874,229.37584 53.5475,-99.2856 -236.1408,-220.15737 5.2281,-7.20627 162.2978,-97.75128 1.0994,-6.91165 L 848.07148,640.49478 1067.259,1263.8954 z"
     id="path4038"
     style="fill:none;stroke:#000000;stroke-width:18;stroke-miterlimit:4;stroke-opacity:1;stroke-dasharray:none" />
  <g>
    <path d="m 158.2079,506.85357 26.6832,98.96504 c 13.76788,-24.58772 33.61478,-40.21553 59.36194,-47.02714 13.05905,-3.45489 25.33267,-4.4043 36.8451,-2.87594 11.44153,1.51894 20.58769,4.89598 27.47635,10.12681 6.99861,5.18021 12.48758,11.51629 16.48004,19.01524 4.11828,7.45663 8.47048,19.59379 13.06174,36.42536 L 368.2008,731.77275 313.42426,749.83528 285.9751,648.73956 c -5.43349,-20.01167 -9.94689,-32.40095 -13.54659,-37.18446 -3.60361,-4.7887 -8.57876,-7.97411 -14.93796,-9.55616 -6.27735,-1.74511 -13.55831,-1.47335 -21.85936,0.82815 -9.57772,2.65545 -17.61773,7.10679 -24.10125,13.36471 -6.51456,6.28787 -10.45718,14.17807 -11.807,23.66608 -1.24638,9.349 0.35006,22.26871 4.79391,38.7505 l 26.5285,98.39128 -59.68533,19.68122 -73.803344,-275.1274 z"/>
    <path d="m 460.04959,506.02818 10.39927,37.67396 -34.28252,9.57207 20.0872,72.97792 c 4.07509,14.80496 6.75755,23.37087 8.0452,25.69027 1.37535,2.16719 3.41597,3.69018 6.11937,4.56862 2.81848,0.83955 5.88838,0.73194 9.20742,-0.32018 4.6109,-1.46163 10.84512,-5.0975 18.67862,-10.88545 l 14.37255,35.50573 c -10.12686,8.5122 -22.52537,15.21294 -37.2425,20.08756 -9.09095,3.01111 -17.7261,4.30406 -25.89335,3.86383 -8.23732,-0.55775 -14.77732,-2.56904 -19.59856,-6.03736 -4.74021,-3.63134 -8.88756,-9.23054 -12.43632,-16.79514 -2.66802,-5.3279 -6.36968,-16.6299 -11.10141,-33.89463 l -22.00939,-80.3061 -24.26562,6.77522 -10.68326,-39.05914 24.32752,-6.47039 -9.98898,-36.447 44.37279,-41.01094 17.5205,63.65294 z"/>
    <path d="m 576.20942,475.1331 10.09416,36.22111 -31.71748,8.85587 19.49208,70.12641 c 3.95405,14.22547 6.54316,22.45932 7.76528,24.69466 1.30177,2.0905 3.21373,3.57087 5.73364,4.4408 2.62644,0.83392 5.47556,0.76311 8.54536,-0.20999 4.2651,-1.35202 10.01351,-4.77063 17.22401,-10.23563 l 13.75897,34.17812 c -9.31161,8.04657 -20.75089,14.33067 -34.35992,18.83827 -8.40393,2.78355 -16.40287,3.9264 -23.98617,3.41484 -7.6483,-0.62475 -13.73794,-2.62212 -18.24983,-5.99509 -4.4383,-3.52784 -8.34958,-8.9326 -11.72867,-16.21197 -2.53623,-5.12872 -6.10085,-15.98715 -10.69058,-32.5648 l -21.35064,-77.11637 -22.4049,6.2557 -10.36309,-37.49973 22.46355,-5.97463 -9.69156,-35.00495 40.65973,-38.9307 17.00436,61.17638 z"/>
    <path d="m 606.53723,467.06684 41.45687,-11.02629 6.89452,24.59522 c 2.92927,-9.84976 8.14289,-18.58935 15.61334,-26.21144 7.42232,-7.57296 16.48634,-12.76205 27.16725,-15.58777 18.44985,-4.88107 36.00492,-1.58493 52.73927,9.76888 16.59455,11.25896 28.53939,29.92703 35.94445,56.0964 7.61378,26.90695 7.3697,49.81982 -0.79806,68.8537 -8.27675,19.11776 -21.45798,31.7321 -39.66103,37.76133 -8.74328,2.89595 -17.25391,3.71474 -25.52157,2.43788 -8.20793,-1.3165 -17.60323,-5.14001 -28.19759,-11.49098 l 23.80377,84.89605 -43.6297,15.47528 z m 66.63456,69.2163 c 5.28793,18.86009 12.85336,31.70322 22.65816,38.49386 9.72899,6.65368 19.72591,8.33317 29.96892,5.07997 9.7712,-3.10335 16.70884,-9.70332 20.84857,-19.77862 4.09031,-10.12847 3.53434,-24.37051 -1.64972,-42.75281 -4.83288,-17.13705 -11.7159,-28.91162 -20.68108,-35.3542 -9.0046,-6.4709 -18.47395,-8.34197 -28.43082,-5.57726 -10.43409,2.89722 -17.9809,9.49673 -22.6007,19.823 -4.67362,10.2756 -4.71836,23.64164 -0.11333,40.06606 z"/>
    <path d="m 813.93644,534.75485 37.23368,-18.54795 c 3.94665,7.61576 9.01773,12.76636 15.19933,15.44967 6.1316,2.57518 13.62041,2.4466 22.43842,-0.36475 9.64096,-3.07372 16.29158,-7.31907 19.99399,-12.73725 2.45249,-3.73915 3.02546,-7.8842 1.72385,-12.44175 -0.88605,-3.10251 -2.49172,-5.40161 -4.81926,-6.899 -2.39022,-1.37524 -7.02247,-1.9063 -13.91924,-1.59068 -32.44787,1.9022 -53.99016,1.04884 -64.1156,-2.60899 -14.12441,-5.11627 -23.40307,-15.35327 -27.74579,-30.67162 -3.91453,-13.808 -2.08861,-26.80884 5.43147,-38.93671 7.46124,-12.03296 21.67686,-20.79387 42.44788,-26.28901 19.47825,-5.15312 34.74748,-5.51373 45.96266,-1.15992 11.14001,4.32462 20.30271,12.64549 27.53279,24.9652 l -32.43763,16.80355 c -3.20738,-5.57857 -7.38278,-9.37568 -12.53594,-11.3923 -5.08021,-2.04742 -11.54522,-1.98986 -19.41837,0.18692 -9.99763,2.76417 -16.77059,6.28088 -20.27145,10.54535 -2.30311,2.98251 -2.96554,6.20345 -1.98327,9.65812 0.84205,2.96155 2.8361,5.11626 5.97778,6.46202 4.2406,1.77327 17.18738,2.26059 38.60782,1.47407 21.19313,-0.80041 36.53685,1.23495 46.22412,6.07695 9.57567,4.93627 16.17662,13.79289 19.84368,26.59534 3.99772,13.95688 2.26722,27.61739 -5.24087,41.06051 -7.57219,13.5579 -21.75365,23.81547 -42.74639,30.7687 -19.35543,6.41091 -36.14464,7.18298 -50.24054,2.21424 -14.12122,-5.0402 -25.19423,-14.58374 -33.14312,-28.62071 z"/>
    <path d="m 964.70099,414.37232 -11.36128,-39.54461 34.54978,-9.18921 11.23718,39.00519 z m 31.67777,110.25913 -11.4146,-39.7302 34.20374,-10.69289 11.2892,39.18578 z"/>
    <path d="m 1054.8033,509.15114 -17.5122,-218.96312 24.1742,-5.82402 17.3974,216.8167 z"/>
    <path d="m 1119.8298,487.60908 -18.4061,-212.87178 22.9494,-5.52896 18.2717,210.84253 z"/>
    <path d="m 1216.7711,451.95721 -75.3765,-127.14648 28.8745,-7.67976 46.6282,83.39036 -7.3799,-93.82924 27.0595,-7.19702 42.7643,81.82605 -5.8692,-91.63903 26.1534,-6.95605 6.3633,139.81174 -25.8581,8.52668 -43.1606,-80.2738 7.4308,92.05568 z"/>
    <path d="m 1369.1729,401.70279 -68.6147,-119.22484 25.1669,-6.69367 42.5703,78.18528 -8.2961,-87.30116 23.674,-6.29662 39.2386,76.80436 -6.9013,-85.40509 22.9632,-6.10755 8.2218,130.31135 -22.6545,7.47032 -39.5416,-75.3519 8.2935,85.65591 z"/>
    <path d="m 1502.6938,357.67441 -62.9002,-112.22889 22.1301,-5.88597 39.1282,73.5902 -8.9392,-81.61957 20.8865,-5.55517 36.2263,72.36236 -7.6517,-79.96235 20.323,-5.40533 9.6071,122.01461 -20.0114,6.59876 -36.4564,-70.99731 8.8968,80.08504 z"/>
  </g>
</svg>
